<svg width="1065" height="156" viewBox="0 0 1065 156" fill="none" xmlns="http://www.w3.org/2000/svg">
<path d="M128.585 137.213L67.3057 137.285L170.07 107.825L214.67 107.816L128.585 137.213ZM197.26 137.132L133.638 137.207L219.706 107.815L268.585 107.806L197.26 137.132ZM263.949 137.053L201.552 137.126L272.865 107.805L320.986 107.796L263.949 137.053ZM329.787 136.975L267.521 137.048L324.553 107.795L372.769 107.785L329.787 136.975ZM397.499 136.895L332.688 136.971L375.665 107.784L426.234 107.774L397.499 136.895ZM465.292 136.814L399.787 136.892L428.521 107.773L479.546 107.765L465.292 136.814ZM532.112 136.734L467.105 136.812L481.356 107.764L532.112 107.754V136.734ZM598.669 136.656L533.739 136.733V107.753L584.482 107.743L598.669 136.656ZM666.126 136.576L600.481 136.654L586.295 107.742L637.582 107.732L666.126 136.576ZM731.35 136.499L668.412 136.573L639.87 107.731L689.214 107.723L731.35 136.499ZM796.735 136.422L734.229 136.495L692.098 107.722L740.842 107.712L796.735 136.422ZM863.139 136.343L800.288 136.417L744.4 107.711L793.319 107.701L863.139 136.343ZM930.197 136.264L867.414 136.338L797.603 107.7L846.362 107.69L930.197 136.264ZM993.472 136.189L935.224 136.258L851.402 107.689L894.076 107.682L993.472 136.189ZM259.203 82.7578H288.055L219.437 106.189L175.595 106.197L259.203 81.5479V82.7578ZM329.507 82.7578L272.544 106.179L224.474 106.188L293.091 82.7578H329.507ZM369.801 82.7578L324.159 106.169L276.824 106.178L333.785 82.7578H369.801ZM409.62 82.7578L375.164 106.158L327.727 106.168L373.367 82.7578H409.62ZM450.922 82.7578L427.84 106.147L378.061 106.157L412.518 82.7578H450.922ZM491.815 82.7578L480.345 106.137L430.126 106.146L453.208 82.7578H491.815ZM532.112 82.7578V106.127L482.155 106.136L493.627 82.7578H532.112ZM572.225 82.7578L583.685 106.116L533.739 106.126V82.7578H572.225ZM612.867 82.7578L635.973 106.105L585.497 106.115L574.037 82.7578H612.867ZM652.661 82.7578L686.832 106.096L638.261 106.104L615.157 82.7578H652.661ZM692.26 82.7578L737.676 106.085L689.716 106.095L655.545 82.7578H692.26ZM732.518 82.7578L789.355 106.074L741.234 106.084L695.82 82.7578H732.518ZM773.212 82.7578L841.592 106.064L793.639 106.073L736.803 82.7578H773.212ZM807.174 82.7578L888.406 106.056L846.631 106.062L778.255 82.7578H807.174ZM721.229 57.0898L801.717 81.1299H773.479L702.947 57.0898H721.229ZM697.904 57.0898L768.436 81.1299H732.834L674.234 57.0898H697.904ZM669.946 57.0898L728.549 81.1299H692.651L645.85 57.0898H669.946ZM642.289 57.0898L689.091 81.1299H653.161L617.961 57.0898H642.289ZM615.075 57.0898L650.277 81.1299H613.547L589.757 57.0898H615.075ZM587.468 57.0898L611.257 81.1299H573.238L561.443 57.0898H587.468ZM559.631 57.0898L571.426 81.1299H533.739V57.0898H559.631ZM532.112 57.0898V81.1299H494.426L506.221 57.0898H532.112ZM504.409 57.0898L492.614 81.1299H454.814L478.537 57.0898H504.409ZM476.252 57.0898L452.528 81.1299H414.914L450.312 57.0898H476.252ZM447.416 57.0898L412.017 81.1299H376.541L423.408 57.0898H447.416ZM419.844 57.0898L372.975 81.1299H337.744L396.213 57.0898H419.844ZM391.935 57.0898L333.466 81.1299H297.858L368.257 57.0898H391.935ZM363.222 57.0898L292.822 81.1299H260.623L342.164 57.0898H363.222ZM669.028 41.499L715.781 55.4629H698.174L657.205 41.499H669.028ZM652.161 41.499L693.131 55.4629H670.269L636.229 41.499H652.161ZM631.941 41.499L665.98 55.4629H642.683L615.497 41.499H631.941ZM611.937 41.499L639.122 55.4629H615.579L595.133 41.499H611.937ZM592.247 41.499L612.693 55.4629H588.147L574.329 41.499H592.247ZM572.04 41.499L585.858 55.4629H560.645L553.794 41.499H572.04ZM551.981 41.499L558.832 55.4629H533.739V41.499H551.981ZM532.112 41.499V55.4629H507.02L513.871 41.499H532.112ZM512.059 41.499L505.208 55.4629H480.143L493.922 41.499H512.059ZM491.637 41.499L477.857 55.4629H452.707L473.269 41.499H491.637ZM470.373 41.499L449.812 55.4629H426.58L453.804 41.499H470.373ZM450.238 41.499L423.016 55.4629H400.17L434.133 41.499H450.238ZM429.854 41.499L395.892 55.4629H373.021L413.914 41.499H429.854ZM408.879 41.499L367.986 55.4629H347.683L395.046 41.499H408.879ZM629.314 29.6377L663.581 39.8721H652.432L622.404 29.6377H629.314ZM617.361 29.6377L647.388 39.8721H632.264L607.316 29.6377H617.361ZM603.027 29.6377L627.976 39.8721H612.33L592.405 29.6377H603.027ZM588.845 29.6377L608.77 39.8721H592.751L577.765 29.6377H588.845ZM574.88 29.6377L589.865 39.8721H572.72L562.592 29.6377H574.88ZM560.303 29.6377L570.431 39.8721H552.995L547.974 29.6377H560.303ZM546.162 29.6377L551.183 39.8721H533.739V29.6377H546.162ZM532.112 29.6377V39.8721H514.67L519.69 29.6377H532.112ZM517.878 29.6377L512.857 39.8721H495.527L505.627 29.6377H517.878ZM503.342 29.6377L493.242 39.8721H475.664L490.733 29.6377H503.342ZM487.838 29.6377L472.769 39.8721H456.976L476.928 29.6377H487.838ZM473.363 29.6377L453.41 39.8721H438.09L462.981 29.6377H473.363ZM458.702 29.6377L433.811 39.8721H418.679L448.649 29.6377H458.702ZM443.617 29.6377L413.644 39.8721H400.563L435.277 29.6377H443.617ZM592.866 18.752L623.867 28.0107H617.631L590.465 18.752H592.866ZM585.422 18.752L612.588 28.0107H603.351L580.779 18.752H585.422ZM576.494 18.752L599.062 28.0107H589.238L571.214 18.752H576.494ZM567.653 18.752L585.678 28.0107H575.383L561.825 18.752H567.653ZM558.941 18.752L572.498 28.0107H560.982L551.819 18.752H558.941ZM549.531 18.752L558.693 28.0107H547.175L542.633 18.752H549.531ZM540.82 18.752L545.363 28.0107H533.739V18.752H540.82ZM532.112 18.752V28.0107H520.489L525.031 18.752H532.112ZM523.22 18.752L518.677 28.0107H507.232L516.369 18.752H523.22ZM514.083 18.752L504.947 28.0107H493.129L506.763 18.752H514.083ZM503.866 18.752L490.233 28.0107H480.1L498.151 18.752H503.866ZM494.585 18.752L476.535 28.0107H466.938L489.458 18.752H494.585ZM485.179 18.752L462.659 28.0107H453.414L480.529 18.752H485.179ZM475.494 18.752L448.382 28.0107H440.796L472.201 18.752H475.494ZM587.416 17.124H585.688L573.452 12.9531L587.416 17.124ZM580.646 17.124H576.811L558.238 9.50391H558.292L580.646 17.124ZM572.525 17.124H568.045L553.26 9.5293L554.005 9.52539L572.525 17.124ZM564.484 17.124H559.441L548.356 9.55371L549.732 9.54688L564.484 17.124ZM556.558 17.124H550.209L542.745 9.58203L545.493 9.56836L556.558 17.124ZM547.921 17.124H541.834L538.145 9.60449L540.468 9.59277L547.921 17.124ZM540.021 17.124H533.739V9.62598L536.336 9.61328L540.021 17.124ZM532.112 17.124H525.83L529.498 9.64746L532.112 9.63477V17.124ZM524.019 17.124H517.976L525.332 9.66895L527.681 9.65625L524.019 17.124ZM515.689 17.124H509.16L520.098 9.69434L523.033 9.67969L515.689 17.124ZM506.263 17.124H501.324L515.765 9.7168L517.181 9.70898L506.263 17.124ZM497.758 17.124H493.417L511.379 9.73828L512.164 9.73438L497.758 17.124ZM489.138 17.124H485.297L506.858 9.76074L507.047 9.75977L489.138 17.124ZM480.262 17.124H477.722L496.315 11.6406L480.262 17.124ZM519.595 8.07031L518.968 8.07324L521.51 6.76953L519.595 8.07031ZM524.647 8.04395L522.512 8.05469L528.957 3.67773L524.647 8.04395ZM528.481 8.02539L526.945 8.0332L529.992 4.94531L528.481 8.02539ZM532.112 8.00781L530.299 8.0166L532.112 4.32031V8.00781ZM535.54 7.99023L533.739 7.99902V4.31934L535.54 7.99023ZM538.865 7.97363L537.349 7.98145L535.849 4.92578L538.865 7.97363ZM543.128 7.95312L541.143 7.96289L536.975 3.75L543.128 7.95312ZM546.596 7.93555L545.992 7.93848L544.144 6.67578L546.596 7.93555Z" stroke="url(#paint0_linear_2134_2097)" stroke-width="1.62707"/>
<defs>
<linearGradient id="paint0_linear_2134_2097" x1="532.285" y1="-2.57081e-08" x2="532.285" y2="126.76" gradientUnits="userSpaceOnUse">
<stop offset="0.1" stop-color="white" stop-opacity="0"/>
<stop offset="0.26" stop-color="white" stop-opacity="0.09"/>
<stop offset="0.591346" stop-color="white" stop-opacity="0"/>
</linearGradient>
</defs>
</svg>
