<svg width="571" height="139" viewBox="0 0 571 139" fill="none" xmlns="http://www.w3.org/2000/svg">
<path d="M314.879 9.51282L345.9 18.7784L382.348 29.6642L422.062 41.5255L474.262 57.1163L560.201 82.7843L560.21 82.7863L647.112 107.71L746.62 136.25L688.235 136.319L620.401 136.4L553.239 136.479L487.127 136.557L421.22 136.635L353.122 136.716L286.073 136.795L218.947 136.875L150.987 136.955L83.1853 137.035L17.2937 137.113L-49.4319 137.193L-118.133 137.274L-179.546 137.346L-76.6721 107.856L-76.6663 107.854L95.4246 57.1173L148.306 41.5265L188.538 29.6652L225.462 18.7794L255.883 9.80969L286.073 0.908325L314.879 9.51282Z" stroke="url(#paint0_linear_1505_823)" stroke-width="1.62707"/>
<defs>
<linearGradient id="paint0_linear_1505_823" x1="285.434" y1="0.0606689" x2="285.434" y2="126.821" gradientUnits="userSpaceOnUse">
<stop offset="0.1" stop-color="white" stop-opacity="0"/>
<stop offset="0.26" stop-color="white" stop-opacity="0.09"/>
<stop offset="0.591346" stop-color="white" stop-opacity="0"/>
</linearGradient>
</defs>
</svg>
